<svg width="52" height="52" viewBox="0 0 52 52" fill="none" xmlns="http://www.w3.org/2000/svg">
<path fill-rule="evenodd" clip-rule="evenodd" d="M22.8935 5.0919C23.842 4.55789 24.9122 4.27734 26.0007 4.27734C27.0892 4.27734 28.1593 4.55789 29.1078 5.0919C30.0563 5.62591 30.8511 6.39537 31.4157 7.32603L31.4214 7.33553L49.7731 37.9722L49.7893 37.9998C50.3423 38.9575 50.6349 40.0433 50.638 41.1492C50.6411 42.255 50.3546 43.3424 49.807 44.3032C49.2593 45.2639 48.4697 46.0645 47.5166 46.6254C46.5635 47.1862 45.4801 47.4877 44.3743 47.4998L44.3523 47.5H7.64899L7.62701 47.4998C6.5212 47.4877 5.43785 47.1862 4.48475 46.6254C3.53164 46.0645 2.74199 45.2639 2.19436 44.3032C1.64673 43.3424 1.36021 42.255 1.36331 41.1492C1.3664 40.0433 1.65901 38.9575 2.21201 37.9998L2.22825 37.9722L20.5856 7.32602C21.1502 6.39535 21.945 5.62591 22.8935 5.0919ZM26.0007 8.27734C25.5996 8.27734 25.2054 8.3807 24.8559 8.57744C24.5079 8.77341 24.216 9.05543 24.0081 9.39648C24.0073 9.39783 24.0065 9.39919 24.0057 9.40055L5.66926 40.0118C5.46986 40.3617 5.36442 40.7574 5.36329 41.1604C5.36215 41.5678 5.46771 41.9684 5.66947 42.3224C5.87123 42.6763 6.16215 42.9713 6.5133 43.1779C6.86175 43.3829 7.25745 43.4939 7.66158 43.5H44.3397C44.7439 43.4939 45.1396 43.3829 45.488 43.1779C45.8392 42.9713 46.1301 42.6763 46.3318 42.3224C46.5336 41.9684 46.6392 41.5678 46.638 41.1604C46.6369 40.7575 46.5315 40.3618 46.3321 40.0119L27.9957 9.40055C27.9948 9.39919 27.994 9.39783 27.9932 9.39648C27.7854 9.05543 27.4934 8.77341 27.1454 8.57744C26.7959 8.3807 26.4017 8.27734 26.0007 8.27734ZM25.999 17.4995C27.1036 17.4995 27.999 18.3949 27.999 19.4995V28.1662C27.999 29.2708 27.1036 30.1662 25.999 30.1662C24.8945 30.1662 23.999 29.2708 23.999 28.1662V19.4995C23.999 18.3949 24.8945 17.4995 25.999 17.4995ZM23.999 36.8328C23.999 35.7283 24.8945 34.8328 25.999 34.8328H26.0199C27.1244 34.8328 28.0199 35.7283 28.0199 36.8328C28.0199 37.9374 27.1244 38.8328 26.0199 38.8328H25.999C24.8945 38.8328 23.999 37.9374 23.999 36.8328Z" fill="#EFC400"/>
</svg>
