<svg width="20" height="20" viewBox="0 0 20 20" fill="none" xmlns="http://www.w3.org/2000/svg">
<g clip-path="url(#clip0_3280_851)">
<path d="M19.0787 8.18704H18.3328V8.14862H9.99949V11.8523H15.2324C14.4689 14.0083 12.4175 15.556 9.99949 15.556C6.93144 15.556 4.44394 13.0685 4.44394 10.0005C4.44394 6.93241 6.93144 4.44491 9.99949 4.44491C11.4157 4.44491 12.7041 4.97917 13.6851 5.85186L16.3041 3.23288C14.6504 1.69167 12.4384 0.741211 9.99949 0.741211C4.88607 0.741211 0.740234 4.88704 0.740234 10.0005C0.740234 15.1139 4.88607 19.2597 9.99949 19.2597C15.1129 19.2597 19.2588 15.1139 19.2588 10.0005C19.2588 9.37964 19.1949 8.77362 19.0787 8.18704Z" fill="#FFC107"/>
<path d="M1.80859 5.69075L4.85072 7.92177C5.67387 5.8838 7.66739 4.44491 10.0003 4.44491C11.4165 4.44491 12.7049 4.97917 13.6859 5.85186L16.3049 3.23288C14.6512 1.69167 12.4391 0.741211 10.0003 0.741211C6.44378 0.741211 3.35952 2.74908 1.80859 5.69075Z" fill="#FF3D00"/>
<path d="M10.0009 19.2594C12.3925 19.2594 14.5657 18.3441 16.2087 16.8557L13.343 14.4307C12.3823 15.1617 11.2081 15.557 10.0009 15.5557C7.59253 15.5557 5.54763 14.02 4.77726 11.877L1.75781 14.2033C3.29022 17.202 6.40226 19.2594 10.0009 19.2594Z" fill="#4CAF50"/>
<path d="M19.0792 8.18589H18.3333V8.14746H10V11.8512H15.2329C14.8677 12.8773 14.2099 13.7739 13.3407 14.4303L13.3421 14.4294L16.2079 16.8544C16.0051 17.0387 19.2593 14.6289 19.2593 9.99931C19.2593 9.37848 19.1954 8.77246 19.0792 8.18589Z" fill="#1976D2"/>
</g>
<defs>
<clipPath id="clip0_3280_851">
<rect width="20" height="20" fill="white"/>
</clipPath>
</defs>
</svg>
