<svg width="40" height="56" viewBox="0 0 40 56" fill="none" xmlns="http://www.w3.org/2000/svg">
<path d="M34.5199 28.2495C34.4655 28.6869 34.2977 29.1034 34.0324 29.4595L19.1449 49.1312C18.8998 49.4513 18.5485 49.6782 18.1512 49.7729C18.0143 49.7908 17.8756 49.7908 17.7387 49.7729C17.4815 49.7702 17.2271 49.7204 16.9887 49.6262C16.646 49.4599 16.3636 49.1952 16.1793 48.8675C15.995 48.5398 15.9175 48.1648 15.9574 47.7929L17.4574 36.4079H7.83867C7.37243 36.389 6.9196 36.2499 6.52617 36.0045C6.14702 35.747 5.84843 35.3915 5.66367 34.9779C5.49688 34.5774 5.43252 34.1432 5.47617 33.7129C5.53242 33.2802 5.70117 32.8695 5.96367 32.5212L20.8512 12.8862C21.0887 12.5787 21.4258 12.359 21.8074 12.2629C22.203 12.1735 22.6175 12.2121 22.9887 12.3729C23.3433 12.533 23.6335 12.8039 23.8137 13.1429C23.9794 13.4528 24.051 13.8027 24.0199 14.1512L22.5199 25.5362H32.1574C32.628 25.5282 33.0886 25.6698 33.4699 25.9395C33.8337 26.198 34.1262 26.5445 34.3137 26.9479C34.4937 27.3567 34.5649 27.804 34.5199 28.2495Z" fill="url(#paint0_linear_3243_923)"/>
<defs>
<linearGradient id="paint0_linear_3243_923" x1="5.46289" y1="12.2158" x2="41.8304" y2="40.3552" gradientUnits="userSpaceOnUse">
<stop stop-color="#5B32D3"/>
<stop offset="1" stop-color="#8B58F2"/>
</linearGradient>
</defs>
</svg>
